# xmcd
#
# Track frame offsets:
#	150
#	15385
#	31345
#	43902
#
# Disc length: 845 seconds
#
# Revision: 0
# Processed by: cddbd v1.5PL3 Copyright (c) Steve Scherf et al.
# Submitted via: dBpowerAMP V4.0
#
DISCID=27034b04
DTITLE=Hank Williams III - Lovesick, Broke and Driftin' (Advance Sampler)
DYEAR=1900
DGENRE=Country
TTITLE0=Mississippi Mud
TTITLE1=Cecil Brown
TTITLE2=Nighttime Ramblin' Man
TTITLE3=5 Shots Of Whiskey
EXTD=
EXTT0=
EXTT1=
EXTT2=
EXTT3=
PLAYORDER=
